REM DIRINDEX 1\2,1\3,1\4,1\5
REM DIRNAME cjc005,folder01,folder02,folder03,folder04
TITLE ""
FILE "P1Q_t_0342-0351.mp3" MP3
  TRACK 01 AUDIO
    TITLE "3:cjc005_1927"
    INDEX 01 00:00:00
  TRACK 02 AUDIO
    TITLE "0:"
    INDEX 01 00:01:22
  TRACK 03 AUDIO
    TITLE "4:cjc005_1928"
    INDEX 01 00:01:50
  TRACK 04 AUDIO
    TITLE "0:"
    INDEX 01 00:03:04
  TRACK 05 AUDIO
    TITLE "5:cjc005_1929"
    INDEX 01 00:03:29
  TRACK 06 AUDIO
    TITLE "0:"
    INDEX 01 00:08:56
  TRACK 07 AUDIO
    TITLE "3:cjc005_1930"
    INDEX 01 00:09:38
  TRACK 08 AUDIO
    TITLE "0:"
    INDEX 01 00:11:07
  TRACK 09 AUDIO
    TITLE "4:cjc005_1931"
    INDEX 01 00:11:23
  TRACK 10 AUDIO
    TITLE "0:"
    INDEX 01 00:12:44
  TRACK 11 AUDIO
    TITLE "5:cjc005_1932"
    INDEX 01 00:12:67
  TRACK 12 AUDIO
    TITLE "0:"
    INDEX 01 00:17:14
  TRACK 13 AUDIO
    TITLE "3:cjc005_1933"
    INDEX 01 00:17:65
  TRACK 14 AUDIO
    TITLE "0:"
    INDEX 01 00:19:11
  TRACK 15 AUDIO
    TITLE "4:cjc005_1934"
    INDEX 01 00:19:32
  TRACK 16 AUDIO
    TITLE "0:"
    INDEX 01 00:20:45
  TRACK 17 AUDIO
    TITLE "5:cjc005_1935"
    INDEX 01 00:20:69
  TRACK 18 AUDIO
    TITLE "0:"
    INDEX 01 00:25:05
  TRACK 19 AUDIO
    TITLE "3:cjc005_1936"
    INDEX 01 00:25:54
  TRACK 20 AUDIO
    TITLE "0:"
    INDEX 01 00:27:00
  TRACK 21 AUDIO
    TITLE "4:cjc005_1937"
    INDEX 01 00:27:24
  TRACK 22 AUDIO
    TITLE "0:"
    INDEX 01 00:28:43
  TRACK 23 AUDIO
    TITLE "5:cjc005_1938"
    INDEX 01 00:28:66
  TRACK 24 AUDIO
    TITLE "0:"
    INDEX 01 00:34:26
  TRACK 25 AUDIO
    TITLE "3:cjc005_1939"
    INDEX 01 00:35:12
  TRACK 26 AUDIO
    TITLE "0:"
    INDEX 01 00:36:19
  TRACK 27 AUDIO
    TITLE "4:cjc005_1940"
    INDEX 01 00:36:42
  TRACK 28 AUDIO
    TITLE "0:"
    INDEX 01 00:37:57
  TRACK 29 AUDIO
    TITLE "5:cjc005_1941"
    INDEX 01 00:38:04
  TRACK 30 AUDIO
    TITLE "0:"
    INDEX 01 00:41:06
  TRACK 31 AUDIO
    TITLE "3:cjc005_1942"
    INDEX 01 00:41:55
  TRACK 32 AUDIO
    TITLE "0:"
    INDEX 01 00:42:66
  TRACK 33 AUDIO
    TITLE "4:cjc005_1943"
    INDEX 01 00:43:15
  TRACK 34 AUDIO
    TITLE "0:"
    INDEX 01 00:44:40
  TRACK 35 AUDIO
    TITLE "5:cjc005_1944"
    INDEX 01 00:44:60
  TRACK 36 AUDIO
    TITLE "0:"
    INDEX 01 00:48:16
  TRACK 37 AUDIO
    TITLE "3:cjc005_1945"
    INDEX 01 00:48:67
  TRACK 38 AUDIO
    TITLE "0:"
    INDEX 01 00:49:69
  TRACK 39 AUDIO
    TITLE "4:cjc005_1946"
    INDEX 01 00:50:13
  TRACK 40 AUDIO
    TITLE "0:"
    INDEX 01 00:51:46
  TRACK 41 AUDIO
    TITLE "5:cjc005_1947"
    INDEX 01 00:51:65
  TRACK 42 AUDIO
    TITLE "0:"
    INDEX 01 00:56:45
  TRACK 43 AUDIO
    TITLE "3:cjc005_1948"
    INDEX 01 00:57:19
  TRACK 44 AUDIO
    TITLE "0:"
    INDEX 01 00:58:42
  TRACK 45 AUDIO
    TITLE "4:cjc005_1949"
    INDEX 01 00:58:69
  TRACK 46 AUDIO
    TITLE "0:"
    INDEX 01 01:00:23
  TRACK 47 AUDIO
    TITLE "5:cjc005_1950"
    INDEX 01 01:00:47
  TRACK 48 AUDIO
    TITLE "0:"
    INDEX 01 01:03:31
  TRACK 49 AUDIO
    TITLE "3:cjc005_1951"
    INDEX 01 01:04:01
  TRACK 50 AUDIO
    TITLE "0:"
    INDEX 01 01:05:11
  TRACK 51 AUDIO
    TITLE "4:cjc005_1952"
    INDEX 01 01:05:32
  TRACK 52 AUDIO
    TITLE "0:"
    INDEX 01 01:06:47
  TRACK 53 AUDIO
    TITLE "5:cjc005_1953"
    INDEX 01 01:06:71
  TRACK 54 AUDIO
    TITLE "0:"
    INDEX 01 01:10:26
  TRACK 55 AUDIO
    TITLE "3:cjc005_1954"
    INDEX 01 01:10:71
  TRACK 56 AUDIO
    TITLE "0:"
    INDEX 01 01:12:05
  TRACK 57 AUDIO
    TITLE "4:cjc005_1955"
    INDEX 01 01:12:40
  TRACK 58 AUDIO
    TITLE "0:"
    INDEX 01 01:13:63
  TRACK 59 AUDIO
    TITLE "5:cjc005_1956"
    INDEX 01 01:14:17
  TRACK 60 AUDIO
    TITLE "0:"
    INDEX 01 01:18:15
